M48
METRIC,LZ,000.000
;FILE_FORMAT=3:3
;TYPE=PLATED
;Layer: PTH_Through
;EasyEDA v6.5.37, 2023-11-02 15:14:11
;70c171ed55f9412ebf638e9d120c17bd,3a11b6de39944756a1cf0add2bf12301,10
;Gerber Generator version 0.2
;Holesize 1 = 0.310 mm
T01C0.310
;Holesize 2 = 0.889 mm
T02C0.889
%
G05
G90
T01
X017145Y043815
X015621Y042799
T02
X022098Y021717
X024638Y021717
X027178Y021717
X029718Y021717
X032258Y021717
X034798Y021717
X037338Y021717
X039878Y021717
X022098Y033782
X024638Y033782
X027178Y033782
X029718Y033782
X032258Y033782
X034798Y033782
X037338Y033782
X039878Y033782
X022098Y045847
X024638Y045847
X027178Y045847
X029718Y045847
X032258Y045847
X034798Y045847
X037338Y045847
X039878Y045847
M30
