M48
METRIC,LZ,000.000
;FILE_FORMAT=3:3
;TYPE=PLATED
;Layer: PTH_Through
;EasyEDA v6.5.37, 2023-11-02 15:14:11
;51ebc0fc367c43e49b7c5eeb1a90c70c,3a11b6de39944756a1cf0add2bf12301,10
;Gerber Generator version 0.2
;Holesize 1 = 0.310 mm
T01C0.310
;Holesize 2 = 0.800 mm
T02C0.800
;Holesize 3 = 0.915 mm
T03C0.915
;Holesize 4 = 3.150 mm
T04C3.150
;Holesize 5 = 3.201 mm
T05C3.201
%
G05
G90
T01
X015748Y045720
X010795Y040894
X015748Y047625
T02
X021717Y052959
X021717Y050419
X021717Y047879
X021717Y045339
X021717Y042799
X021717Y040259
X021717Y055499
X036957Y055499
X036957Y040259
X036957Y042799
X036957Y045339
X036957Y047879
X036957Y050419
X036957Y052959
T03
X019431Y033274
X019431Y030734
X019431Y028194
X019431Y025654
X019431Y023114
X019431Y020574
X019431Y018034
X019431Y015494
X019431Y012954
X019431Y010414
X019431Y007874
X019431Y005334
X037211Y005334
X037211Y007874
X037211Y010414
X037211Y012954
X037211Y015494
X037211Y018034
X037211Y020574
X037211Y023114
X037211Y025654
X037211Y028194
X037211Y030734
X037211Y033274
T04
X028575Y006223
T05
X028321Y032385
M30
