G04 Layer: BottomLayer*
G04 EasyEDA v6.5.37, 2023-11-02 15:14:11*
G04 51ebc0fc367c43e49b7c5eeb1a90c70c,3a11b6de39944756a1cf0add2bf12301,10*
G04 Gerber Generator version 0.2*
G04 Scale: 100 percent, Rotated: No, Reflected: No *
G04 Dimensions in millimeters *
G04 leading zeros omitted , absolute positions ,4 integer and 5 decimal *
%FSLAX45Y45*%
%MOMM*%

%ADD10C,0.5000*%
%ADD11C,1.5240*%
%ADD12C,3.8100*%
%ADD13C,1.7780*%
%ADD14C,0.6200*%

%LPD*%
D10*
X1943100Y3073400D02*
G01*
X2120900Y3073400D01*
X2273300Y2921000D01*
X2273300Y2387600D01*
X1943100Y2057400D01*
X1943100Y2565400D02*
G01*
X1701800Y2806700D01*
X1701800Y3441700D01*
X1955800Y3695700D01*
X1955800Y4064000D01*
X2171700Y4279900D01*
X3695700Y5295900D02*
G01*
X3289300Y4889500D01*
X3289300Y3073400D01*
X2819400Y2603500D01*
X2273300Y2603500D01*
X1079500Y4089400D02*
G01*
X990600Y4000500D01*
X990600Y457200D01*
X1143000Y304800D01*
X3238500Y304800D01*
X3721100Y787400D01*
X1574800Y4572000D02*
G01*
X1638300Y4572000D01*
X1638300Y3708400D01*
X1244600Y3314700D01*
X1244600Y1231900D01*
X1943100Y533400D01*
X1574800Y4762500D02*
G01*
X1841500Y4762500D01*
X1841500Y3733800D01*
X1422400Y3314700D01*
X1422400Y1562100D01*
X1943100Y1041400D01*
D11*
G01*
X1943100Y3327400D03*
G01*
X1943100Y3073400D03*
G01*
X1943100Y2819400D03*
G01*
X1943100Y2565400D03*
G01*
X1943100Y2311400D03*
G01*
X1943100Y2057400D03*
G01*
X1943100Y1803400D03*
G01*
X1943100Y1549400D03*
G01*
X1943100Y1295400D03*
G01*
X1943100Y1041400D03*
G01*
X1943100Y787400D03*
G01*
X1943100Y533400D03*
G01*
X3721100Y533400D03*
G01*
X3721100Y787400D03*
G01*
X3721100Y1041400D03*
G01*
X3721100Y1295400D03*
G01*
X3721100Y1549400D03*
G01*
X3721100Y1803400D03*
G01*
X3721100Y2057400D03*
G01*
X3721100Y2311400D03*
G01*
X3721100Y2565400D03*
G01*
X3721100Y2819400D03*
G01*
X3721100Y3073400D03*
G01*
X3721100Y3327400D03*
D12*
G01*
X2832100Y3238500D03*
G01*
X2857500Y622300D03*
D13*
G01*
X2171700Y5295900D03*
G01*
X2171700Y5041900D03*
G01*
X2171700Y4787900D03*
G01*
X2171700Y4533900D03*
G01*
X2171700Y4279900D03*
G01*
X2171700Y4025900D03*
G01*
X2171700Y5549900D03*
G01*
X3695700Y5549900D03*
G01*
X3695700Y4025900D03*
G01*
X3695700Y4279900D03*
G01*
X3695700Y4533900D03*
G01*
X3695700Y4787900D03*
G01*
X3695700Y5041900D03*
G01*
X3695700Y5295900D03*
D14*
G01*
X1574800Y4572000D03*
G01*
X1079500Y4089400D03*
G01*
X1574800Y4762500D03*
M02*
